<svg width="48" height="49" viewBox="0 0 48 49" fill="none" xmlns="http://www.w3.org/2000/svg">
<path d="M19.1636 41.253C18.2272 41.253 17.3283 40.8971 16.6541 40.2417L4.73383 30.8403H1.87784C1.31601 30.8403 0.857178 30.3815 0.857178 29.8196V11.6162C0.857178 11.532 0.866542 11.4383 0.894633 11.354C1.007 10.9046 1.41901 10.5956 1.87784 10.5956C1.96212 10.5956 2.04639 10.6049 2.14003 10.633L6.75643 11.8129L6.85943 11.7473C8.31083 10.839 12.0939 8.72282 15.6803 8.72282C16.5417 8.72282 17.347 8.84456 18.068 9.09738L18.2085 9.1442L18.3209 9.05992C20.1656 7.74898 22.2443 7.09351 24.501 7.09351C26.0835 7.09351 27.7878 7.42124 29.5669 8.05799C32.9285 9.50003 38.884 11.7942 40.7755 11.8972L45.8507 10.6049C45.9256 10.5862 46.0099 10.5768 46.0942 10.5768C46.3283 10.5768 46.553 10.6518 46.7309 10.7922C46.9931 10.9889 47.1429 11.2885 47.1429 11.6069V29.8196C47.1429 30.3815 46.6841 30.8403 46.1223 30.8403H42.4048L39.3334 31.8048V32.0202C39.3615 32.685 39.193 33.3405 38.8746 33.9117C38.2379 35.0353 37.0299 35.7376 35.7283 35.7376C35.1103 35.7376 34.4923 35.5784 33.9492 35.2694L33.6777 35.1102L33.5559 35.4005C32.9847 36.7302 31.6831 37.5823 30.2317 37.5917C29.6044 37.5917 28.9863 37.4231 28.4339 37.1047L28.1623 36.9456L28.0406 37.2358C27.4694 38.5655 26.1585 39.427 24.7164 39.427C24.089 39.427 23.4616 39.2584 22.9185 38.9401L22.647 38.7809L22.5253 39.0712C22.3567 39.4738 22.1132 39.8296 21.8136 40.1387C21.1207 40.8503 20.1937 41.253 19.2011 41.253H19.1636ZM15.596 10.7829C12.3654 10.7829 8.70412 12.9834 8.00183 13.4328L7.88946 13.5077L6.17587 29.3795L17.9838 38.6685C17.9838 38.6685 18.04 38.7153 18.068 38.7434C18.3771 39.0431 18.7797 39.2023 19.1917 39.2023C19.6037 39.2023 20.0064 39.0431 20.306 38.7622C20.924 38.1348 20.924 37.1328 20.306 36.5148L16.626 32.8348C16.4387 32.6475 16.3264 32.3853 16.3264 32.1138C16.3264 31.8422 16.4294 31.5801 16.626 31.4021C16.8227 31.2055 17.0755 31.1025 17.347 31.1025C17.6186 31.1025 17.8714 31.2055 18.068 31.4021L23.5647 36.9175C23.8924 37.2358 24.2857 37.395 24.6977 37.395C25.1097 37.395 25.5311 37.2265 25.8307 36.9175C26.121 36.6085 26.2802 36.2152 26.2802 35.7938C26.2802 35.3724 26.1023 34.9791 25.8026 34.6795L20.2686 29.1642C19.8659 28.7709 19.8659 28.1154 20.2686 27.7221C20.4652 27.5255 20.718 27.4225 20.9896 27.4225C21.2611 27.4225 21.5233 27.5255 21.7106 27.7221L29.0893 35.0821C29.389 35.3724 29.7823 35.5316 30.1943 35.5316C30.6063 35.5316 30.9996 35.3724 31.2899 35.0915C31.9172 34.4829 31.936 33.4809 31.3273 32.8535L23.9673 25.4748C23.6302 25.1002 23.6396 24.5103 23.986 24.1264C24.1827 23.911 24.4542 23.7893 24.7445 23.7893C24.9973 23.7893 25.2408 23.8829 25.4281 24.0515L34.614 33.2375C34.9231 33.5277 35.3163 33.6963 35.7377 33.6963C36.1591 33.6963 36.5524 33.5371 36.852 33.2468C37.4607 32.6288 37.4607 31.6175 36.852 31.0089L24.295 18.4612L24.0984 18.6298C22.3005 20.1748 20.5027 20.9614 18.7329 20.9614C17.4594 20.9614 16.2327 20.5588 15.081 19.7722C13.2737 18.5268 12.7306 16.0734 13.8449 14.1819C14.4536 13.1519 15.1559 12.1781 15.9424 11.2698L16.3357 10.8109H15.6147L15.596 10.7829ZM26.6735 13.0864C26.9169 13.0864 27.151 13.1706 27.3383 13.3298C27.7597 13.695 27.8159 14.3411 27.4413 14.7719C26.9357 15.5023 26.4113 16.1671 25.8775 16.7757L25.6996 16.9724L38.266 29.5387C38.3315 29.6043 38.3877 29.6698 38.4439 29.7447L38.5656 29.8946L41.15 29.0893L39.9702 13.8355L39.7642 13.798C36.7022 13.2081 31.1213 10.9233 28.8646 9.96822C27.2915 9.40639 25.8307 9.12547 24.501 9.12547C22.4878 9.12547 20.6525 9.77158 19.0606 11.045C19.0138 11.0919 18.9857 11.1106 18.9483 11.1387C17.5905 12.2998 16.4762 13.6669 15.6147 15.2026C15.0435 16.1577 15.3057 17.4125 16.214 18.068C17.0006 18.6111 17.8433 18.8826 18.7048 18.8826C20.9334 18.8826 23.3118 17.1128 25.7652 13.6295C25.812 13.5546 25.8494 13.4984 25.8869 13.4516C26.0835 13.2268 26.3645 13.0957 26.6641 13.0957L26.6735 13.0864ZM41.9741 13.6857L43.1446 28.7896H45.0829V12.9178L41.9834 13.695L41.9741 13.6857ZM2.89851 28.8083H4.18136L5.81068 13.6669L2.89851 12.9178V28.8083Z" fill="#4F4F4F"/>
</svg>
